<svg xmlns="http://www.w3.org/2000/svg" xmlns:xlink="http://www.w3.org/1999/xlink" width="167" zoomAndPan="magnify" viewBox="0 0 125.25 43.499998" height="58" preserveAspectRatio="xMidYMid meet" version="1.0"><defs><g/><clipPath id="2618abc8fd"><path d="M 0.0507812 1 L 4 1 L 4 6 L 0.0507812 6 Z M 0.0507812 1 " clip-rule="nonzero"/></clipPath><clipPath id="d85f5f96a6"><path d="M 29 1 L 33.507812 1 L 33.507812 6 L 29 6 Z M 29 1 " clip-rule="nonzero"/></clipPath><clipPath id="20bc245ed7"><path d="M 0.0507812 1 L 4 1 L 4 6 L 0.0507812 6 Z M 0.0507812 1 " clip-rule="nonzero"/></clipPath><clipPath id="27e0d799bb"><path d="M 29 1 L 33.507812 1 L 33.507812 6 L 29 6 Z M 29 1 " clip-rule="nonzero"/></clipPath><clipPath id="5309e0365d"><rect x="0" width="34" y="0" height="8"/></clipPath><clipPath id="c0fab41be7"><path d="M 100 2.980469 L 112 2.980469 L 112 18 L 100 18 Z M 100 2.980469 " clip-rule="nonzero"/></clipPath><clipPath id="04eac68caa"><path d="M 99 18 L 112 18 L 112 24.480469 L 99 24.480469 Z M 99 18 " clip-rule="nonzero"/></clipPath><clipPath id="b06bd1ac2c"><path d="M 110 18 L 117 18 L 117 24.480469 L 110 24.480469 Z M 110 18 " clip-rule="nonzero"/></clipPath><clipPath id="4678dca60a"><path d="M 94 18 L 102 18 L 102 24.480469 L 94 24.480469 Z M 94 18 " clip-rule="nonzero"/></clipPath><clipPath id="d11fc203b6"><path d="M 89.824219 22 L 121.707031 22 L 121.707031 24.480469 L 89.824219 24.480469 Z M 89.824219 22 " clip-rule="nonzero"/></clipPath></defs><g fill="#ffbf00" fill-opacity="1"><g transform="translate(1.262687, 20.1834)"><g><path d="M 3.5 -3.640625 C 4.507812 -2.671875 5.222656 -1.941406 5.640625 -1.453125 C 5.859375 -1.210938 5.96875 -1.003906 5.96875 -0.828125 C 5.96875 -0.660156 5.835938 -0.460938 5.578125 -0.234375 C 5.316406 -0.015625 5.097656 0.09375 4.921875 0.09375 C 4.753906 0.09375 4.554688 -0.0390625 4.328125 -0.3125 L 2.140625 -2.796875 L 2.140625 -0.875 C 2.140625 -0.71875 2.132812 -0.601562 2.125 -0.53125 C 2.113281 -0.457031 2.082031 -0.367188 2.03125 -0.265625 C 1.945312 -0.0859375 1.691406 0 1.265625 0 C 0.804688 0 0.535156 -0.125 0.453125 -0.375 C 0.410156 -0.476562 0.390625 -0.644531 0.390625 -0.875 L 0.390625 -6.375 C 0.390625 -6.53125 0.394531 -6.644531 0.40625 -6.71875 C 0.414062 -6.789062 0.445312 -6.878906 0.5 -6.984375 C 0.59375 -7.160156 0.851562 -7.25 1.28125 -7.25 C 1.738281 -7.25 2.007812 -7.128906 2.09375 -6.890625 C 2.125 -6.773438 2.140625 -6.601562 2.140625 -6.375 L 2.140625 -4.484375 C 3.035156 -5.492188 3.765625 -6.320312 4.328125 -6.96875 C 4.554688 -7.238281 4.753906 -7.375 4.921875 -7.375 C 5.097656 -7.375 5.316406 -7.257812 5.578125 -7.03125 C 5.835938 -6.800781 5.96875 -6.601562 5.96875 -6.4375 C 5.96875 -6.269531 5.867188 -6.066406 5.671875 -5.828125 C 5.296875 -5.390625 4.703125 -4.785156 3.890625 -4.015625 Z M 3.5 -3.640625 "/></g></g></g><g fill="#ffbf00" fill-opacity="1"><g transform="translate(8.05213, 20.1834)"><g><path d="M 0.390625 -6.375 C 0.390625 -6.53125 0.394531 -6.644531 0.40625 -6.71875 C 0.414062 -6.789062 0.445312 -6.878906 0.5 -6.984375 C 0.59375 -7.160156 0.851562 -7.25 1.28125 -7.25 C 1.738281 -7.25 2.007812 -7.128906 2.09375 -6.890625 C 2.125 -6.773438 2.140625 -6.601562 2.140625 -6.375 L 2.140625 -0.875 C 2.140625 -0.71875 2.132812 -0.601562 2.125 -0.53125 C 2.113281 -0.457031 2.082031 -0.367188 2.03125 -0.265625 C 1.945312 -0.0859375 1.691406 0 1.265625 0 C 0.804688 0 0.535156 -0.125 0.453125 -0.375 C 0.410156 -0.476562 0.390625 -0.644531 0.390625 -0.875 Z M 0.390625 -6.375 "/></g></g></g><g fill="#ffbf00" fill-opacity="1"><g transform="translate(11.066463, 20.1834)"><g><path d="M 0.875 -7.265625 L 6.375 -7.265625 C 6.582031 -7.265625 6.734375 -7.238281 6.828125 -7.1875 C 6.929688 -7.132812 7 -7.054688 7.03125 -6.953125 C 7.0625 -6.847656 7.078125 -6.707031 7.078125 -6.53125 C 7.078125 -6.363281 7.0625 -6.226562 7.03125 -6.125 C 7 -6.019531 6.941406 -5.953125 6.859375 -5.921875 C 6.742188 -5.859375 6.578125 -5.828125 6.359375 -5.828125 L 4.46875 -5.828125 L 4.46875 -0.84375 C 4.46875 -0.695312 4.460938 -0.585938 4.453125 -0.515625 C 4.441406 -0.441406 4.410156 -0.359375 4.359375 -0.265625 C 4.316406 -0.171875 4.234375 -0.101562 4.109375 -0.0625 C 3.984375 -0.0195312 3.816406 0 3.609375 0 C 3.398438 0 3.234375 -0.0195312 3.109375 -0.0625 C 2.992188 -0.101562 2.910156 -0.171875 2.859375 -0.265625 C 2.816406 -0.359375 2.789062 -0.441406 2.78125 -0.515625 C 2.769531 -0.597656 2.765625 -0.710938 2.765625 -0.859375 L 2.765625 -5.828125 L 0.859375 -5.828125 C 0.648438 -5.828125 0.492188 -5.847656 0.390625 -5.890625 C 0.296875 -5.941406 0.226562 -6.019531 0.1875 -6.125 C 0.15625 -6.238281 0.140625 -6.378906 0.140625 -6.546875 C 0.140625 -6.722656 0.15625 -6.859375 0.1875 -6.953125 C 0.226562 -7.054688 0.285156 -7.128906 0.359375 -7.171875 C 0.484375 -7.234375 0.65625 -7.265625 0.875 -7.265625 Z M 0.875 -7.265625 "/></g></g></g><g fill="#ffbf00" fill-opacity="1"><g transform="translate(18.765092, 20.1834)"><g><path d="M 4.921875 -1.90625 L 5.109375 -2.03125 C 5.328125 -2.15625 5.484375 -2.21875 5.578125 -2.21875 C 5.785156 -2.21875 6.003906 -2.035156 6.234375 -1.671875 C 6.378906 -1.441406 6.453125 -1.253906 6.453125 -1.109375 C 6.453125 -0.972656 6.40625 -0.859375 6.3125 -0.765625 C 6.226562 -0.679688 6.125 -0.601562 6 -0.53125 C 5.882812 -0.457031 5.773438 -0.382812 5.671875 -0.3125 C 5.566406 -0.25 5.34375 -0.164062 5 -0.0625 C 4.664062 0.0390625 4.34375 0.09375 4.03125 0.09375 C 3.71875 0.09375 3.398438 0.0546875 3.078125 -0.015625 C 2.753906 -0.0976562 2.421875 -0.238281 2.078125 -0.4375 C 1.742188 -0.632812 1.441406 -0.875 1.171875 -1.15625 C 0.898438 -1.4375 0.675781 -1.796875 0.5 -2.234375 C 0.332031 -2.671875 0.25 -3.144531 0.25 -3.65625 C 0.25 -4.175781 0.332031 -4.644531 0.5 -5.0625 C 0.675781 -5.476562 0.894531 -5.820312 1.15625 -6.09375 C 1.425781 -6.375 1.734375 -6.601562 2.078125 -6.78125 C 2.722656 -7.132812 3.375 -7.3125 4.03125 -7.3125 C 4.332031 -7.3125 4.644531 -7.265625 4.96875 -7.171875 C 5.289062 -7.078125 5.535156 -6.984375 5.703125 -6.890625 L 5.9375 -6.75 C 6.050781 -6.675781 6.144531 -6.613281 6.21875 -6.5625 C 6.382812 -6.425781 6.46875 -6.269531 6.46875 -6.09375 C 6.46875 -5.914062 6.398438 -5.734375 6.265625 -5.546875 C 6.003906 -5.191406 5.769531 -5.015625 5.5625 -5.015625 C 5.445312 -5.015625 5.28125 -5.085938 5.0625 -5.234375 C 4.789062 -5.453125 4.421875 -5.5625 3.953125 -5.5625 C 3.523438 -5.5625 3.101562 -5.414062 2.6875 -5.125 C 2.488281 -4.976562 2.320312 -4.769531 2.1875 -4.5 C 2.0625 -4.238281 2 -3.941406 2 -3.609375 C 2 -3.273438 2.0625 -2.976562 2.1875 -2.71875 C 2.320312 -2.457031 2.492188 -2.25 2.703125 -2.09375 C 3.097656 -1.800781 3.515625 -1.65625 3.953125 -1.65625 C 4.160156 -1.65625 4.351562 -1.679688 4.53125 -1.734375 C 4.71875 -1.785156 4.847656 -1.84375 4.921875 -1.90625 Z M 4.921875 -1.90625 "/></g></g></g><g fill="#ffbf00" fill-opacity="1"><g transform="translate(25.949827, 20.1834)"><g><path d="M 4.875 -6.96875 C 4.925781 -7.070312 5.015625 -7.144531 5.140625 -7.1875 C 5.265625 -7.226562 5.421875 -7.25 5.609375 -7.25 C 5.804688 -7.25 5.957031 -7.234375 6.0625 -7.203125 C 6.175781 -7.171875 6.265625 -7.128906 6.328125 -7.078125 C 6.390625 -7.035156 6.4375 -6.972656 6.46875 -6.890625 C 6.5 -6.773438 6.515625 -6.601562 6.515625 -6.375 L 6.515625 -0.875 C 6.515625 -0.726562 6.507812 -0.613281 6.5 -0.53125 C 6.488281 -0.457031 6.457031 -0.375 6.40625 -0.28125 C 6.3125 -0.101562 6.054688 -0.015625 5.640625 -0.015625 C 5.171875 -0.015625 4.898438 -0.132812 4.828125 -0.375 C 4.785156 -0.488281 4.765625 -0.660156 4.765625 -0.890625 L 4.765625 -2.890625 L 2.140625 -2.890625 L 2.140625 -0.875 C 2.140625 -0.726562 2.132812 -0.613281 2.125 -0.53125 C 2.113281 -0.457031 2.082031 -0.375 2.03125 -0.28125 C 1.945312 -0.101562 1.691406 -0.015625 1.265625 -0.015625 C 0.804688 -0.015625 0.535156 -0.132812 0.453125 -0.375 C 0.410156 -0.488281 0.390625 -0.660156 0.390625 -0.890625 L 0.390625 -6.375 C 0.390625 -6.53125 0.394531 -6.644531 0.40625 -6.71875 C 0.414062 -6.789062 0.445312 -6.878906 0.5 -6.984375 C 0.59375 -7.160156 0.851562 -7.25 1.28125 -7.25 C 1.738281 -7.25 2.007812 -7.128906 2.09375 -6.890625 C 2.125 -6.773438 2.140625 -6.601562 2.140625 -6.375 L 2.140625 -4.359375 L 4.765625 -4.359375 L 4.765625 -6.375 C 4.765625 -6.53125 4.769531 -6.644531 4.78125 -6.71875 C 4.789062 -6.789062 4.820312 -6.875 4.875 -6.96875 Z M 4.875 -6.96875 "/></g></g></g><g fill="#ffbf00" fill-opacity="1"><g transform="translate(33.33222, 20.1834)"><g><path d="M 2.140625 -1.75 L 5.1875 -1.75 C 5.34375 -1.75 5.457031 -1.742188 5.53125 -1.734375 C 5.601562 -1.722656 5.691406 -1.691406 5.796875 -1.640625 C 5.972656 -1.546875 6.0625 -1.289062 6.0625 -0.875 C 6.0625 -0.40625 5.941406 -0.132812 5.703125 -0.0625 C 5.585938 -0.0195312 5.414062 0 5.1875 0 L 1.265625 0 C 0.804688 0 0.535156 -0.125 0.453125 -0.375 C 0.410156 -0.476562 0.390625 -0.644531 0.390625 -0.875 L 0.390625 -6.375 C 0.390625 -6.71875 0.453125 -6.945312 0.578125 -7.0625 C 0.703125 -7.1875 0.941406 -7.25 1.296875 -7.25 L 5.1875 -7.25 C 5.34375 -7.25 5.457031 -7.242188 5.53125 -7.234375 C 5.601562 -7.222656 5.691406 -7.191406 5.796875 -7.140625 C 5.972656 -7.046875 6.0625 -6.789062 6.0625 -6.375 C 6.0625 -5.90625 5.941406 -5.632812 5.703125 -5.5625 C 5.585938 -5.519531 5.414062 -5.5 5.1875 -5.5 L 2.140625 -5.5 L 2.140625 -4.5 L 4.109375 -4.5 C 4.253906 -4.5 4.363281 -4.492188 4.4375 -4.484375 C 4.519531 -4.472656 4.609375 -4.441406 4.703125 -4.390625 C 4.878906 -4.296875 4.96875 -4.039062 4.96875 -3.625 C 4.96875 -3.15625 4.84375 -2.882812 4.59375 -2.8125 C 4.488281 -2.769531 4.316406 -2.75 4.078125 -2.75 L 2.140625 -2.75 Z M 2.140625 -1.75 "/></g></g></g><g fill="#ffbf00" fill-opacity="1"><g transform="translate(40.111773, 20.1834)"><g><path d="M 5.078125 -6.953125 C 5.140625 -7.066406 5.234375 -7.140625 5.359375 -7.171875 C 5.484375 -7.210938 5.640625 -7.234375 5.828125 -7.234375 C 6.015625 -7.234375 6.164062 -7.21875 6.28125 -7.1875 C 6.394531 -7.15625 6.476562 -7.113281 6.53125 -7.0625 C 6.59375 -7.019531 6.640625 -6.953125 6.671875 -6.859375 C 6.703125 -6.753906 6.71875 -6.585938 6.71875 -6.359375 L 6.71875 -0.875 C 6.71875 -0.71875 6.710938 -0.601562 6.703125 -0.53125 C 6.703125 -0.457031 6.671875 -0.367188 6.609375 -0.265625 C 6.523438 -0.0859375 6.269531 0 5.84375 0 C 5.582031 0 5.398438 -0.0195312 5.296875 -0.0625 C 5.203125 -0.101562 5.125 -0.164062 5.0625 -0.25 C 3.582031 -2.226562 2.609375 -3.519531 2.140625 -4.125 L 2.140625 -0.875 C 2.140625 -0.71875 2.132812 -0.601562 2.125 -0.53125 C 2.113281 -0.457031 2.082031 -0.367188 2.03125 -0.265625 C 1.9375 -0.0859375 1.675781 0 1.25 0 C 0.84375 0 0.59375 -0.0859375 0.5 -0.265625 C 0.445312 -0.367188 0.414062 -0.457031 0.40625 -0.53125 C 0.394531 -0.613281 0.390625 -0.726562 0.390625 -0.875 L 0.390625 -6.40625 C 0.390625 -6.65625 0.421875 -6.835938 0.484375 -6.953125 C 0.546875 -7.066406 0.640625 -7.140625 0.765625 -7.171875 C 0.890625 -7.210938 1.050781 -7.234375 1.25 -7.234375 C 1.445312 -7.234375 1.601562 -7.210938 1.71875 -7.171875 C 1.84375 -7.140625 1.925781 -7.101562 1.96875 -7.0625 C 1.988281 -7.039062 2.066406 -6.957031 2.203125 -6.8125 C 3.585938 -4.914062 4.515625 -3.664062 4.984375 -3.0625 L 4.984375 -6.40625 C 4.984375 -6.65625 5.015625 -6.835938 5.078125 -6.953125 Z M 5.078125 -6.953125 "/></g></g></g><g transform="matrix(1, 0, 0, 1, 1, 24)"><g clip-path="url(#5309e0365d)"><g clip-path="url(#2618abc8fd)"><g fill="#ffbf00" fill-opacity="0.4"><g transform="translate(0.212413, 4.94804)"><g><path d="M 1.265625 -2.859375 L 1.203125 -1.796875 L 2.875 -1.703125 L 2.859375 -1.171875 L 1.1875 -1.265625 L 1.109375 0.0625 L 0.46875 0.03125 L 0.65625 -3.421875 L 3.171875 -3.296875 L 3.140625 -2.765625 Z M 1.265625 -2.859375 "/></g></g></g></g><g fill="#ffbf00" fill-opacity="0.4"><g transform="translate(3.767595, 5.140104)"><g><path d="M 2.734375 -0.6875 L 1.015625 -0.75 L 0.640625 0.03125 L -0.03125 0 L 1.671875 -3.390625 L 2.296875 -3.359375 L 3.71875 0.15625 L 3.046875 0.125 Z M 2.546875 -1.203125 L 1.953125 -2.734375 L 1.234375 -1.25 Z M 2.546875 -1.203125 "/></g></g></g><g fill="#ffbf00" fill-opacity="0.4"><g transform="translate(7.878338, 5.301196)"><g><path d="M 1.53125 0.09375 C 1.269531 0.0820312 1.015625 0.0390625 0.765625 -0.03125 C 0.515625 -0.113281 0.320312 -0.222656 0.1875 -0.359375 L 0.40625 -0.84375 C 0.550781 -0.738281 0.722656 -0.644531 0.921875 -0.5625 C 1.128906 -0.488281 1.335938 -0.445312 1.546875 -0.4375 C 1.804688 -0.4375 2 -0.472656 2.125 -0.546875 C 2.25 -0.628906 2.316406 -0.738281 2.328125 -0.875 C 2.328125 -0.96875 2.289062 -1.046875 2.21875 -1.109375 C 2.15625 -1.179688 2.066406 -1.234375 1.953125 -1.265625 C 1.847656 -1.304688 1.703125 -1.351562 1.515625 -1.40625 C 1.265625 -1.476562 1.054688 -1.546875 0.890625 -1.609375 C 0.722656 -1.679688 0.582031 -1.785156 0.46875 -1.921875 C 0.363281 -2.066406 0.3125 -2.25 0.3125 -2.46875 C 0.320312 -2.664062 0.378906 -2.835938 0.484375 -2.984375 C 0.585938 -3.140625 0.742188 -3.257812 0.953125 -3.34375 C 1.171875 -3.425781 1.429688 -3.460938 1.734375 -3.453125 C 1.941406 -3.453125 2.144531 -3.421875 2.34375 -3.359375 C 2.550781 -3.304688 2.726562 -3.226562 2.875 -3.125 L 2.671875 -2.640625 C 2.515625 -2.722656 2.351562 -2.789062 2.1875 -2.84375 C 2.019531 -2.894531 1.863281 -2.921875 1.71875 -2.921875 C 1.457031 -2.929688 1.265625 -2.894531 1.140625 -2.8125 C 1.023438 -2.726562 0.960938 -2.613281 0.953125 -2.46875 C 0.953125 -2.375 0.984375 -2.296875 1.046875 -2.234375 C 1.117188 -2.171875 1.207031 -2.117188 1.3125 -2.078125 C 1.425781 -2.046875 1.570312 -2 1.75 -1.9375 C 2.007812 -1.875 2.21875 -1.804688 2.375 -1.734375 C 2.539062 -1.671875 2.679688 -1.570312 2.796875 -1.4375 C 2.910156 -1.300781 2.96875 -1.125 2.96875 -0.90625 C 2.957031 -0.707031 2.894531 -0.535156 2.78125 -0.390625 C 2.675781 -0.242188 2.515625 -0.125 2.296875 -0.03125 C 2.085938 0.0507812 1.832031 0.09375 1.53125 0.09375 Z M 1.53125 0.09375 "/></g></g></g><g fill="#ffbf00" fill-opacity="0.4"><g transform="translate(11.396356, 5.391697)"><g><path d="M 1.21875 -2.890625 L 0.0625 -2.90625 L 0.0625 -3.453125 L 3 -3.40625 L 3 -2.859375 L 1.859375 -2.875 L 1.8125 0.03125 L 1.171875 0.015625 Z M 1.21875 -2.890625 "/></g></g></g><g fill="#ffbf00" fill-opacity="0.4"><g transform="translate(14.77812, 5.433666)"><g/></g></g><g fill="#ffbf00" fill-opacity="0.4"><g transform="translate(16.549027, 5.444438)"><g><path d="M 1.09375 -2.921875 L 1.09375 -1.859375 L 2.765625 -1.875 L 2.78125 -1.34375 L 1.109375 -1.328125 L 1.109375 0 L 0.46875 0 L 0.453125 -3.453125 L 2.96875 -3.46875 L 2.96875 -2.9375 Z M 1.09375 -2.921875 "/></g></g></g><g fill="#ffbf00" fill-opacity="0.4"><g transform="translate(20.110341, 5.427787)"><g><path d="M 2.078125 0 C 1.722656 0.0078125 1.398438 -0.0546875 1.109375 -0.203125 C 0.828125 -0.347656 0.601562 -0.550781 0.4375 -0.8125 C 0.269531 -1.082031 0.1875 -1.390625 0.1875 -1.734375 C 0.175781 -2.066406 0.25 -2.367188 0.40625 -2.640625 C 0.5625 -2.921875 0.78125 -3.140625 1.0625 -3.296875 C 1.34375 -3.453125 1.660156 -3.535156 2.015625 -3.546875 C 2.367188 -3.546875 2.6875 -3.472656 2.96875 -3.328125 C 3.25 -3.179688 3.472656 -2.972656 3.640625 -2.703125 C 3.804688 -2.441406 3.894531 -2.144531 3.90625 -1.8125 C 3.90625 -1.46875 3.828125 -1.15625 3.671875 -0.875 C 3.515625 -0.601562 3.296875 -0.390625 3.015625 -0.234375 C 2.742188 -0.078125 2.429688 0 2.078125 0 Z M 2.0625 -0.5625 C 2.289062 -0.5625 2.5 -0.613281 2.6875 -0.71875 C 2.875 -0.832031 3.015625 -0.976562 3.109375 -1.15625 C 3.210938 -1.34375 3.265625 -1.554688 3.265625 -1.796875 C 3.253906 -2.023438 3.195312 -2.226562 3.09375 -2.40625 C 2.988281 -2.59375 2.835938 -2.734375 2.640625 -2.828125 C 2.453125 -2.929688 2.242188 -2.984375 2.015625 -2.984375 C 1.785156 -2.972656 1.582031 -2.910156 1.40625 -2.796875 C 1.226562 -2.691406 1.082031 -2.546875 0.96875 -2.359375 C 0.863281 -2.179688 0.816406 -1.976562 0.828125 -1.75 C 0.828125 -1.507812 0.882812 -1.296875 1 -1.109375 C 1.113281 -0.929688 1.257812 -0.789062 1.4375 -0.6875 C 1.625 -0.59375 1.832031 -0.550781 2.0625 -0.5625 Z M 2.0625 -0.5625 "/></g></g></g><g fill="#ffbf00" fill-opacity="0.4"><g transform="translate(24.68623, 5.334772)"><g><path d="M 2.078125 -0.03125 C 1.722656 -0.0195312 1.398438 -0.0820312 1.109375 -0.21875 C 0.828125 -0.363281 0.597656 -0.566406 0.421875 -0.828125 C 0.253906 -1.097656 0.164062 -1.40625 0.15625 -1.75 C 0.144531 -2.082031 0.210938 -2.382812 0.359375 -2.65625 C 0.515625 -2.9375 0.726562 -3.15625 1 -3.3125 C 1.28125 -3.476562 1.597656 -3.566406 1.953125 -3.578125 C 2.304688 -3.585938 2.625 -3.519531 2.90625 -3.375 C 3.195312 -3.238281 3.425781 -3.035156 3.59375 -2.765625 C 3.769531 -2.503906 3.863281 -2.207031 3.875 -1.875 C 3.882812 -1.53125 3.8125 -1.21875 3.65625 -0.9375 C 3.507812 -0.664062 3.296875 -0.445312 3.015625 -0.28125 C 2.742188 -0.125 2.429688 -0.0390625 2.078125 -0.03125 Z M 2.0625 -0.59375 C 2.289062 -0.601562 2.492188 -0.660156 2.671875 -0.765625 C 2.859375 -0.878906 3 -1.03125 3.09375 -1.21875 C 3.195312 -1.40625 3.242188 -1.617188 3.234375 -1.859375 C 3.222656 -2.085938 3.160156 -2.289062 3.046875 -2.46875 C 2.941406 -2.644531 2.789062 -2.78125 2.59375 -2.875 C 2.40625 -2.976562 2.195312 -3.023438 1.96875 -3.015625 C 1.738281 -3.003906 1.535156 -2.941406 1.359375 -2.828125 C 1.179688 -2.722656 1.039062 -2.578125 0.9375 -2.390625 C 0.832031 -2.203125 0.785156 -1.992188 0.796875 -1.765625 C 0.804688 -1.523438 0.867188 -1.316406 0.984375 -1.140625 C 1.097656 -0.960938 1.25 -0.820312 1.4375 -0.71875 C 1.625 -0.625 1.832031 -0.582031 2.0625 -0.59375 Z M 2.0625 -0.59375 "/></g></g></g><g clip-path="url(#d85f5f96a6)"><g fill="#ffbf00" fill-opacity="0.4"><g transform="translate(29.259769, 5.165824)"><g><path d="M 0.28125 -3.484375 L 1.78125 -3.5625 C 2.15625 -3.582031 2.488281 -3.523438 2.78125 -3.390625 C 3.082031 -3.265625 3.316406 -3.070312 3.484375 -2.8125 C 3.648438 -2.5625 3.742188 -2.269531 3.765625 -1.9375 C 3.785156 -1.59375 3.722656 -1.28125 3.578125 -1 C 3.441406 -0.726562 3.234375 -0.515625 2.953125 -0.359375 C 2.671875 -0.210938 2.34375 -0.128906 1.96875 -0.109375 L 0.46875 -0.03125 Z M 1.921875 -0.65625 C 2.171875 -0.664062 2.390625 -0.722656 2.578125 -0.828125 C 2.765625 -0.929688 2.90625 -1.078125 3 -1.265625 C 3.09375 -1.453125 3.132812 -1.664062 3.125 -1.90625 C 3.113281 -2.132812 3.050781 -2.335938 2.9375 -2.515625 C 2.820312 -2.691406 2.664062 -2.820312 2.46875 -2.90625 C 2.269531 -2.988281 2.046875 -3.023438 1.796875 -3.015625 L 0.953125 -2.96875 L 1.078125 -0.609375 Z M 1.921875 -0.65625 "/></g></g></g></g><g clip-path="url(#20bc245ed7)"><g fill="#ffbf00" fill-opacity="1"><g transform="translate(0.17309, 4.90872)"><g><path d="M 1.265625 -2.859375 L 1.203125 -1.796875 L 2.875 -1.703125 L 2.859375 -1.171875 L 1.1875 -1.265625 L 1.109375 0.0625 L 0.46875 0.03125 L 0.65625 -3.421875 L 3.171875 -3.296875 L 3.140625 -2.765625 Z M 1.265625 -2.859375 "/></g></g></g></g><g fill="#ffbf00" fill-opacity="1"><g transform="translate(3.728271, 5.100782)"><g><path d="M 2.734375 -0.6875 L 1.015625 -0.75 L 0.640625 0.03125 L -0.03125 0 L 1.671875 -3.390625 L 2.296875 -3.359375 L 3.71875 0.15625 L 3.046875 0.125 Z M 2.546875 -1.203125 L 1.953125 -2.734375 L 1.234375 -1.25 Z M 2.546875 -1.203125 "/></g></g></g><g fill="#ffbf00" fill-opacity="1"><g transform="translate(7.839014, 5.261874)"><g><path d="M 1.53125 0.09375 C 1.269531 0.0820312 1.015625 0.0390625 0.765625 -0.03125 C 0.515625 -0.113281 0.320312 -0.222656 0.1875 -0.359375 L 0.40625 -0.84375 C 0.550781 -0.738281 0.722656 -0.644531 0.921875 -0.5625 C 1.128906 -0.488281 1.335938 -0.445312 1.546875 -0.4375 C 1.804688 -0.4375 2 -0.472656 2.125 -0.546875 C 2.25 -0.628906 2.316406 -0.738281 2.328125 -0.875 C 2.328125 -0.96875 2.289062 -1.046875 2.21875 -1.109375 C 2.15625 -1.179688 2.066406 -1.234375 1.953125 -1.265625 C 1.847656 -1.304688 1.703125 -1.351562 1.515625 -1.40625 C 1.265625 -1.476562 1.054688 -1.546875 0.890625 -1.609375 C 0.722656 -1.679688 0.582031 -1.785156 0.46875 -1.921875 C 0.363281 -2.066406 0.3125 -2.25 0.3125 -2.46875 C 0.320312 -2.664062 0.378906 -2.835938 0.484375 -2.984375 C 0.585938 -3.140625 0.742188 -3.257812 0.953125 -3.34375 C 1.171875 -3.425781 1.429688 -3.460938 1.734375 -3.453125 C 1.941406 -3.453125 2.144531 -3.421875 2.34375 -3.359375 C 2.550781 -3.304688 2.726562 -3.226562 2.875 -3.125 L 2.671875 -2.640625 C 2.515625 -2.722656 2.351562 -2.789062 2.1875 -2.84375 C 2.019531 -2.894531 1.863281 -2.921875 1.71875 -2.921875 C 1.457031 -2.929688 1.265625 -2.894531 1.140625 -2.8125 C 1.023438 -2.726562 0.960938 -2.613281 0.953125 -2.46875 C 0.953125 -2.375 0.984375 -2.296875 1.046875 -2.234375 C 1.117188 -2.171875 1.207031 -2.117188 1.3125 -2.078125 C 1.425781 -2.046875 1.570312 -2 1.75 -1.9375 C 2.007812 -1.875 2.21875 -1.804688 2.375 -1.734375 C 2.539062 -1.671875 2.679688 -1.570312 2.796875 -1.4375 C 2.910156 -1.300781 2.96875 -1.125 2.96875 -0.90625 C 2.957031 -0.707031 2.894531 -0.535156 2.78125 -0.390625 C 2.675781 -0.242188 2.515625 -0.125 2.296875 -0.03125 C 2.085938 0.0507812 1.832031 0.09375 1.53125 0.09375 Z M 1.53125 0.09375 "/></g></g></g><g fill="#ffbf00" fill-opacity="1"><g transform="translate(11.357033, 5.352375)"><g><path d="M 1.21875 -2.890625 L 0.0625 -2.90625 L 0.0625 -3.453125 L 3 -3.40625 L 3 -2.859375 L 1.859375 -2.875 L 1.8125 0.03125 L 1.171875 0.015625 Z M 1.21875 -2.890625 "/></g></g></g><g fill="#ffbf00" fill-opacity="1"><g transform="translate(14.738796, 5.394343)"><g/></g></g><g fill="#ffbf00" fill-opacity="1"><g transform="translate(16.509704, 5.405116)"><g><path d="M 1.09375 -2.921875 L 1.09375 -1.859375 L 2.765625 -1.875 L 2.78125 -1.34375 L 1.109375 -1.328125 L 1.109375 0 L 0.46875 0 L 0.453125 -3.453125 L 2.96875 -3.46875 L 2.96875 -2.9375 Z M 1.09375 -2.921875 "/></g></g></g><g fill="#ffbf00" fill-opacity="1"><g transform="translate(20.071019, 5.388465)"><g><path d="M 2.078125 0 C 1.722656 0.0078125 1.398438 -0.0546875 1.109375 -0.203125 C 0.828125 -0.347656 0.601562 -0.550781 0.4375 -0.8125 C 0.269531 -1.082031 0.1875 -1.390625 0.1875 -1.734375 C 0.175781 -2.066406 0.25 -2.367188 0.40625 -2.640625 C 0.5625 -2.921875 0.78125 -3.140625 1.0625 -3.296875 C 1.34375 -3.453125 1.660156 -3.535156 2.015625 -3.546875 C 2.367188 -3.546875 2.6875 -3.472656 2.96875 -3.328125 C 3.25 -3.179688 3.472656 -2.972656 3.640625 -2.703125 C 3.804688 -2.441406 3.894531 -2.144531 3.90625 -1.8125 C 3.90625 -1.46875 3.828125 -1.15625 3.671875 -0.875 C 3.515625 -0.601562 3.296875 -0.390625 3.015625 -0.234375 C 2.742188 -0.078125 2.429688 0 2.078125 0 Z M 2.0625 -0.5625 C 2.289062 -0.5625 2.5 -0.613281 2.6875 -0.71875 C 2.875 -0.832031 3.015625 -0.976562 3.109375 -1.15625 C 3.210938 -1.34375 3.265625 -1.554688 3.265625 -1.796875 C 3.253906 -2.023438 3.195312 -2.226562 3.09375 -2.40625 C 2.988281 -2.59375 2.835938 -2.734375 2.640625 -2.828125 C 2.453125 -2.929688 2.242188 -2.984375 2.015625 -2.984375 C 1.785156 -2.972656 1.582031 -2.910156 1.40625 -2.796875 C 1.226562 -2.691406 1.082031 -2.546875 0.96875 -2.359375 C 0.863281 -2.179688 0.816406 -1.976562 0.828125 -1.75 C 0.828125 -1.507812 0.882812 -1.296875 1 -1.109375 C 1.113281 -0.929688 1.257812 -0.789062 1.4375 -0.6875 C 1.625 -0.59375 1.832031 -0.550781 2.0625 -0.5625 Z M 2.0625 -0.5625 "/></g></g></g><g fill="#ffbf00" fill-opacity="1"><g transform="translate(24.646906, 5.29545)"><g><path d="M 2.078125 -0.03125 C 1.722656 -0.0195312 1.398438 -0.0820312 1.109375 -0.21875 C 0.828125 -0.363281 0.597656 -0.566406 0.421875 -0.828125 C 0.253906 -1.097656 0.164062 -1.40625 0.15625 -1.75 C 0.144531 -2.082031 0.210938 -2.382812 0.359375 -2.65625 C 0.515625 -2.9375 0.726562 -3.15625 1 -3.3125 C 1.28125 -3.476562 1.597656 -3.566406 1.953125 -3.578125 C 2.304688 -3.585938 2.625 -3.519531 2.90625 -3.375 C 3.195312 -3.238281 3.425781 -3.035156 3.59375 -2.765625 C 3.769531 -2.503906 3.863281 -2.207031 3.875 -1.875 C 3.882812 -1.53125 3.8125 -1.21875 3.65625 -0.9375 C 3.507812 -0.664062 3.296875 -0.445312 3.015625 -0.28125 C 2.742188 -0.125 2.429688 -0.0390625 2.078125 -0.03125 Z M 2.0625 -0.59375 C 2.289062 -0.601562 2.492188 -0.660156 2.671875 -0.765625 C 2.859375 -0.878906 3 -1.03125 3.09375 -1.21875 C 3.195312 -1.40625 3.242188 -1.617188 3.234375 -1.859375 C 3.222656 -2.085938 3.160156 -2.289062 3.046875 -2.46875 C 2.941406 -2.644531 2.789062 -2.78125 2.59375 -2.875 C 2.40625 -2.976562 2.195312 -3.023438 1.96875 -3.015625 C 1.738281 -3.003906 1.535156 -2.941406 1.359375 -2.828125 C 1.179688 -2.722656 1.039062 -2.578125 0.9375 -2.390625 C 0.832031 -2.203125 0.785156 -1.992188 0.796875 -1.765625 C 0.804688 -1.523438 0.867188 -1.316406 0.984375 -1.140625 C 1.097656 -0.960938 1.25 -0.820312 1.4375 -0.71875 C 1.625 -0.625 1.832031 -0.582031 2.0625 -0.59375 Z M 2.0625 -0.59375 "/></g></g></g><g clip-path="url(#27e0d799bb)"><g fill="#ffbf00" fill-opacity="1"><g transform="translate(29.220447, 5.126501)"><g><path d="M 0.28125 -3.484375 L 1.78125 -3.5625 C 2.15625 -3.582031 2.488281 -3.523438 2.78125 -3.390625 C 3.082031 -3.265625 3.316406 -3.070312 3.484375 -2.8125 C 3.648438 -2.5625 3.742188 -2.269531 3.765625 -1.9375 C 3.785156 -1.59375 3.722656 -1.28125 3.578125 -1 C 3.441406 -0.726562 3.234375 -0.515625 2.953125 -0.359375 C 2.671875 -0.210938 2.34375 -0.128906 1.96875 -0.109375 L 0.46875 -0.03125 Z M 1.921875 -0.65625 C 2.171875 -0.664062 2.390625 -0.722656 2.578125 -0.828125 C 2.765625 -0.929688 2.90625 -1.078125 3 -1.265625 C 3.09375 -1.453125 3.132812 -1.664062 3.125 -1.90625 C 3.113281 -2.132812 3.050781 -2.335938 2.9375 -2.515625 C 2.820312 -2.691406 2.664062 -2.820312 2.46875 -2.90625 C 2.269531 -2.988281 2.046875 -3.023438 1.796875 -3.015625 L 0.953125 -2.96875 L 1.078125 -0.609375 Z M 1.921875 -0.65625 "/></g></g></g></g></g></g><path stroke-linecap="round" transform="matrix(0.741477, 0, 0, 0.741477, 1.259127, 8.319764)" fill="none" stroke-linejoin="miter" d="M 2.000143 1.997387 L 111.573428 1.997387 " stroke="#eb0027" stroke-width="4" stroke-opacity="1" stroke-miterlimit="4"/><path fill="#af0505" d="M 108.902344 10.210938 C 108.902344 10.210938 108.445312 9.253906 109.0625 8.511719 C 109.503906 7.988281 109.199219 7.1875 109.199219 7.1875 C 109.199219 7.1875 110.023438 8.121094 109.433594 8.699219 C 108.855469 9.265625 108.902344 10.210938 108.902344 10.210938 Z M 108.902344 10.210938 " fill-opacity="1" fill-rule="nonzero"/><path fill="#af0505" d="M 103.402344 6.296875 C 103.402344 6.296875 104.203125 5.253906 103.832031 3.773438 C 103.832031 3.773438 104.972656 5.082031 103.402344 6.296875 Z M 103.402344 6.296875 " fill-opacity="1" fill-rule="nonzero"/><path fill="#af0505" d="M 101.671875 17.601562 C 101.671875 17.601562 98.914062 16.023438 99.074219 14.21875 C 99.074219 14.21875 98.445312 16.863281 101.671875 17.601562 Z M 101.671875 17.601562 " fill-opacity="1" fill-rule="nonzero"/><path fill="#af0505" d="M 109.570312 17.601562 C 109.570312 17.601562 111.589844 16.820312 111.988281 15.371094 C 111.988281 15.371094 112.0625 17.378906 109.570312 17.601562 Z M 109.570312 17.601562 " fill-opacity="1" fill-rule="nonzero"/><g clip-path="url(#c0fab41be7)"><path fill="#af0505" d="M 102.601562 17.601562 C 102.601562 17.601562 101.273438 16.042969 101.972656 13.820312 C 101.972656 13.820312 102.042969 15.589844 103.160156 16.671875 C 103.160156 16.671875 102.742188 15.832031 102.984375 14.632812 C 102.984375 14.632812 103.546875 16.582031 104.910156 17.269531 C 104.910156 17.269531 105.777344 16.011719 105.867188 14.871094 C 105.867188 14.871094 106.199219 16.222656 105.867188 17.601562 C 105.867188 17.601562 108.613281 16.609375 109.171875 14.121094 C 109.171875 14.121094 109.800781 15.953125 108.089844 17.601562 C 108.089844 17.601562 110.957031 16.640625 111.199219 14.390625 C 111.445312 12.140625 110.105469 11.890625 110.371094 10.621094 C 110.578125 9.632812 110.675781 9.332031 110.675781 9.332031 C 110.675781 9.332031 109.246094 9.871094 109.101562 11.296875 C 109.101562 11.296875 107.777344 10.207031 108.089844 9.199219 C 108.398438 8.210938 108.921875 7.15625 107.671875 5.390625 C 107.671875 5.390625 107.796875 6.761719 107.214844 7.339844 C 106.542969 8.015625 106.332031 8.136719 106.15625 9.5 C 106.15625 9.5 105.828125 8.996094 106.378906 7.296875 C 107.039062 5.269531 105.328125 3.5 104.488281 2.992188 C 104.488281 2.992188 105.46875 4.878906 104.488281 6.441406 C 103.511719 8 102.601562 9.710938 103.300781 11.632812 C 103.300781 11.632812 102.707031 11.390625 102.707031 9.320312 C 102.707031 7.25 101.308594 6.410156 101.308594 6.410156 C 101.308594 6.410156 102.460938 8.558594 101.308594 10.695312 C 100.152344 12.832031 99.980469 15.832031 102.601562 17.601562 Z M 109.820312 16.144531 C 109.761719 16.210938 109.722656 16.246094 109.722656 16.246094 C 109.757812 16.214844 109.785156 16.179688 109.820312 16.144531 C 110.121094 15.804688 111.011719 14.566406 110.332031 12.355469 C 110.332031 12.355469 111.421875 14.542969 109.820312 16.144531 Z M 107.742188 8.972656 C 107.742188 8.972656 108.140625 8.171875 108.160156 6.976562 C 108.160156 6.976562 108.464844 7.910156 107.742188 8.972656 Z M 107.117188 16.367188 C 108.425781 15.308594 108.808594 14.171875 108.808594 14.171875 C 108.292969 15.960938 107.117188 16.367188 107.117188 16.367188 Z M 105.988281 11.246094 C 107.570312 12.929688 106.65625 14.695312 106.65625 14.695312 C 107.152344 13.289062 105.988281 11.246094 105.988281 11.246094 Z M 105.515625 4.453125 C 105.515625 4.453125 106.671875 5.828125 105.785156 7.625 C 105.785156 7.625 106.277344 6.269531 105.515625 4.453125 Z M 104.648438 7.136719 C 104.648438 7.136719 103.117188 9.269531 104.070312 11.402344 C 104.066406 11.417969 102.703125 9.679688 104.648438 7.136719 Z M 103.398438 14.660156 C 103.398438 14.660156 103.484375 15.472656 104.683594 16.867188 C 104.683594 16.867188 103.4375 15.839844 103.398438 14.660156 Z M 101.207031 15.121094 C 101.207031 15.121094 100.453125 13.234375 101.777344 11.425781 C 101.777344 11.425781 100.789062 13.140625 101.207031 15.121094 Z M 101.207031 15.121094 " fill-opacity="1" fill-rule="nonzero"/></g><path fill="#af0505" d="M 111.921875 14.300781 C 111.921875 14.300781 112.191406 13.363281 111.5625 12.398438 C 111.5625 12.398438 112.523438 13.492188 111.921875 14.300781 Z M 111.921875 14.300781 " fill-opacity="1" fill-rule="nonzero"/><path fill="#af0505" d="M 99.976562 14.21875 C 99.976562 14.21875 99.660156 13.105469 100.160156 11.925781 C 100.160156 11.925781 99.339844 13.324219 99.976562 14.21875 Z M 99.976562 14.21875 " fill-opacity="1" fill-rule="nonzero"/><g clip-path="url(#04eac68caa)"><path fill="#3c1212" d="M 111.660156 18.667969 C 111.660156 18.523438 111.546875 18.40625 111.402344 18.40625 L 100.207031 18.40625 C 100.0625 18.40625 99.949219 18.523438 99.949219 18.667969 C 99.949219 18.808594 100.0625 18.925781 100.207031 18.925781 L 100.523438 18.925781 C 100.667969 20.445312 101.460938 21.773438 102.613281 22.644531 L 101.664062 24.921875 L 102.480469 24.921875 L 103.253906 23.0625 C 103.90625 23.421875 104.640625 23.640625 105.417969 23.695312 L 105.417969 24.921875 L 106.191406 24.921875 L 106.191406 23.695312 C 106.972656 23.640625 107.703125 23.421875 108.355469 23.0625 L 109.128906 24.921875 L 109.945312 24.921875 L 108.996094 22.644531 C 110.152344 21.773438 110.941406 20.445312 111.089844 18.925781 L 111.402344 18.925781 C 111.546875 18.925781 111.660156 18.808594 111.660156 18.667969 Z M 110.238281 19.539062 C 110.238281 19.539062 109.289062 23.109375 105.707031 22.917969 C 105.707031 22.917969 108.402344 22.988281 110.238281 19.539062 Z M 110.238281 19.539062 " fill-opacity="1" fill-rule="nonzero"/></g><g clip-path="url(#b06bd1ac2c)"><path fill="#3c1212" d="M 111.203125 24.921875 L 112.957031 23.003906 L 113.691406 22.855469 C 114.113281 22.769531 114.496094 22.546875 114.773438 22.21875 L 116.867188 19.757812 C 116.9375 19.675781 116.929688 19.558594 116.851562 19.488281 C 116.773438 19.417969 116.65625 19.421875 116.582031 19.496094 L 114.242188 21.851562 C 114.203125 21.890625 114.15625 21.921875 114.105469 21.941406 L 113.683594 22.113281 C 113.578125 22.15625 113.457031 22.132812 113.371094 22.058594 C 113.289062 21.980469 113.257812 21.863281 113.289062 21.753906 L 113.421875 21.320312 C 113.4375 21.265625 113.464844 21.21875 113.5 21.175781 L 115.640625 18.632812 C 115.707031 18.554688 115.699219 18.4375 115.625 18.367188 C 115.546875 18.296875 115.429688 18.296875 115.355469 18.371094 L 113.085938 20.679688 C 112.785156 20.984375 112.597656 21.382812 112.550781 21.808594 L 112.464844 22.550781 L 110.3125 24.90625 Z M 111.203125 24.921875 " fill-opacity="1" fill-rule="nonzero"/></g><g clip-path="url(#4678dca60a)"><path fill="#3c1212" d="M 96.214844 23.140625 C 96.410156 23.363281 96.695312 23.480469 96.988281 23.460938 L 98.625 23.351562 L 100.203125 24.921875 L 101.03125 24.921875 L 99.035156 22.9375 L 99.0625 22.910156 L 99.167969 21.265625 C 99.1875 20.96875 99.066406 20.683594 98.84375 20.488281 L 96.660156 18.582031 C 96.378906 18.335938 95.957031 18.351562 95.695312 18.617188 L 94.316406 20.007812 C 94.054688 20.269531 94.039062 20.691406 94.289062 20.96875 Z M 96.199219 19.320312 C 96.269531 19.253906 96.378906 19.253906 96.445312 19.320312 L 98.203125 21.066406 C 98.273438 21.132812 98.273438 21.242188 98.207031 21.3125 C 98.136719 21.378906 98.027344 21.378906 97.960938 21.3125 L 96.203125 19.566406 C 96.132812 19.5 96.132812 19.390625 96.199219 19.320312 Z M 95.613281 19.914062 C 95.679688 19.847656 95.789062 19.847656 95.859375 19.914062 L 97.617188 21.65625 C 97.683594 21.726562 97.683594 21.835938 97.617188 21.902344 C 97.550781 21.972656 97.441406 21.972656 97.371094 21.90625 L 95.613281 20.160156 C 95.546875 20.09375 95.546875 19.984375 95.613281 19.914062 Z M 95.023438 20.507812 C 95.09375 20.4375 95.203125 20.4375 95.269531 20.507812 L 97.027344 22.25 C 97.097656 22.316406 97.097656 22.429688 97.03125 22.496094 C 96.960938 22.566406 96.851562 22.566406 96.785156 22.496094 L 95.027344 20.753906 C 94.957031 20.6875 94.957031 20.574219 95.023438 20.507812 Z M 95.023438 20.507812 " fill-opacity="1" fill-rule="nonzero"/></g><g clip-path="url(#d11fc203b6)"><path fill="#3c1212" d="M 119.734375 24.429688 L 91.875 24.429688 C 90.921875 24.429688 90.109375 23.8125 89.824219 22.953125 C 89.921875 24.058594 90.851562 24.996094 91.980469 24.996094 L 119.628906 24.996094 C 120.757812 24.996094 121.6875 24.058594 121.789062 22.953125 C 121.5 23.8125 120.691406 24.429688 119.734375 24.429688 Z M 119.734375 24.429688 " fill-opacity="1" fill-rule="nonzero"/></g><path stroke-linecap="round" transform="matrix(0.741477, 0, 0, 0.741477, 34.486241, 26.52253)" fill="none" stroke-linejoin="miter" d="M 1.999399 1.997872 L 115.750366 1.997872 " stroke="#eb0027" stroke-width="4" stroke-opacity="1" stroke-miterlimit="4"/></svg>